PathFileType	4	(X/Y/Z)	./resultDataOpenSim/trcMotMarkerGrf/sub09/qtm-04-01.trc
DataRate	CameraRate	NumFrames	NumMarkers	Units	OrigDataRate	OrigDataStartFrame	OrigNumFrames
250.000000	250.000000	7	24	m	250.000000	190	506
Frame#	Time	L.Toe.Tip			R.Toe.Tip			L.Ankle.Lat			R.Ankle.Lat			L.Ankle.Med			R.Ankle.Med			L.Heel			R.Heel			L.Knee.Lat			R.Knee.Lat			L.Knee.Med			R.Knee.Med			L.Thigh.Upper			R.Thigh.Upper			L.ASIS			R.ASIS			V.Sacral			L.Acromium			R.Acromium			C7			L.Elbow			R.Elbow			L.Wrist.Lat			R.Wrist.Lat
		X1	Y1	Z1	X2	Y2	Z2	X3	Y3	Z3	X4	Y4	Z4	X5	Y5	Z5	X6	Y6	Z6	X7	Y7	Z7	X8	Y8	Z8	X9	Y9	Z9	X10	Y10	Z10	X11	Y11	Z11	X12	Y12	Z12	X13	Y13	Z13	X14	Y14	Z14	X15	Y15	Z15	X16	Y16	Z16	X17	Y17	Z17	X18	Y18	Z18	X19	Y19	Z19	X20	Y20	Z20	X21	Y21	Z21	X22	Y22	Z22	X23	Y23	Z23	X24	Y24	Z24

190	0.756	0.19551636	-0.033499727	0.040487813	-0.57380558	0.065233594	0.14071991	0.05149409	-0.0034206532	-0.0091335794	-0.61326534	0.21348794	0.17588508	0.063376101	0.014896723	0.088085851	-0.56027293	0.20648597	0.092431172	-0.024574834	-0.036925492	0.029914328	-0.65188093	0.25551082	0.11232446	0.11440774	0.40325846	-0.064240993	-0.20345585	0.38689303	0.25783213	0.10728308	0.40829732	0.061183151	-0.18905998	0.35325695	0.13406465	-0.070602759	0.78404356	-0.12163488	-0.15636762	0.77325819	0.24308504	-0.010408251	0.87234556	-0.048865878	-0.038382951	0.85655541	0.19403306	-0.19865819	0.91497823	0.051534838	-0.061246697	1.3144429	-0.10371884	-0.091986403	1.3270621	0.22933508	-0.14797967	1.3673016	0.058633466	-0.204595	0.98214021	-0.15709043	-0.20248425	0.97683847	0.31453464	-0.12084915	0.74038961	-0.21542017	-0.023655669	0.76694678	0.31762349
191	0.76	0.19555889	-0.033561794	0.040376994	-0.56792663	0.067121604	0.14209637	0.051820418	-0.0037019951	-0.0092611621	-0.60235233	0.21735763	0.17735628	0.063620812	0.014893318	0.087927362	-0.54947567	0.20943239	0.093557208	-0.024669737	-0.036810887	0.029969942	-0.63953861	0.26080722	0.11401288	0.11756156	0.40283498	-0.065367672	-0.19143051	0.3857526	0.25786777	0.11081977	0.40674945	0.060526983	-0.17769259	0.35280175	0.13434253	-0.064266398	0.7839306	-0.12215494	-0.14973631	0.77250864	0.24269711	-0.0039182343	0.87258224	-0.049798842	-0.032138967	0.85647803	0.19337116	-0.19160464	0.91478182	0.050477186	-0.054168772	1.3147342	-0.10380287	-0.084830128	1.3271428	0.22926296	-0.14099945	1.3675999	0.058461249	-0.19669113	0.98194919	-0.15762637	-0.19603354	0.97722278	0.31439435	-0.1112938	0.74044499	-0.21502678	-0.019272152	0.76593586	0.31804076
192	0.764	0.19555522	-0.033612305	0.040280269	-0.56128161	0.069070376	0.14374181	0.052078999	-0.0039468122	-0.0093922955	-0.59115504	0.2209239	0.17843371	0.063753886	0.014924993	0.087746921	-0.53846795	0.21223239	0.094607827	-0.024809903	-0.036721345	0.02999133	-0.62702829	0.2660002	0.1156638	0.12051136	0.40259363	-0.066585737	-0.17926283	0.38477364	0.25774268	0.11428097	0.4054821	0.060012043	-0.16616398	0.35253736	0.13428655	-0.057882237	0.78398879	-0.12266166	-0.14312129	0.7719478	0.24232533	0.0024588279	0.87282504	-0.050635476	-0.025985906	0.85657764	0.1927759	-0.1830184	0.9145937	0.049137521	-0.047116004	1.3151181	-0.10388436	-0.077856179	1.3273561	0.22919111	-0.13410272	1.3680599	0.058283614	-0.18889448	0.98187886	-0.15834464	-0.18953624	0.97770901	0.31431201	-0.10165933	0.74063328	-0.21459062	-0.015111988	0.76493204	0.31840727
193	0.768	0.19551577	-0.033643751	0.040224112	-0.5537347	0.071174876	0.14551971	0.052217895	-0.0041369813	-0.0095291276	-0.57961805	0.22422814	0.17907825	0.063769052	0.014949294	0.087604179	-0.52724823	0.21496099	0.095596496	-0.024949966	-0.036662015	0.029956962	-0.61444097	0.27097071	0.11724775	0.12344132	0.40221678	-0.067519919	-0.16695434	0.38398354	0.25744236	0.11756669	0.40446897	0.059582663	-0.15445271	0.35241635	0.13396571	-0.05141039	0.7842674	-0.12314107	-0.13648513	0.77158032	0.24195975	0.0087574796	0.87312637	-0.051403588	-0.019918299	0.85685068	0.19224406	-0.17340783	0.91450912	0.047537114	-0.040077262	1.3156008	-0.10395277	-0.071064816	1.3277087	0.22911637	-0.12726195	1.3686617	0.058099138	-0.18120885	0.98192646	-0.15922887	-0.1831547	0.9783541	0.31426456	-0.091952581	0.74096211	-0.21410849	-0.011179938	0.76394797	0.31872065
194	0.772	0.19546398	-0.033663904	0.040217695	-0.54514078	0.073539264	0.14728581	0.05224096	-0.0043009577	-0.009658601	-0.56774777	0.22737162	0.17942098	0.063709722	0.01495023	0.087513273	-0.51585146	0.21776945	0.096534501	-0.025061371	-0.036621927	0.029885705	-0.60189796	0.27557383	0.1187338	0.12640274	0.40158892	-0.067973125	-0.15450752	0.38341326	0.25695838	0.12056186	0.40367435	0.059200232	-0.14265083	0.35248116	0.1334622	-0.044840179	0.78478575	-0.1235729	-0.12982942	0.77140768	0.2415982	0.015028397	0.87352441	-0.052097222	-0.013925137	0.85729727	0.19177187	-0.16405345	0.91463432	0.045841115	-0.033042569	1.3161905	-0.10399591	-0.064461753	1.3282089	0.22903724	-0.12045193	1.3693795	0.057909146	-0.17359724	0.98208211	-0.1601426	-0.17701806	0.97918244	0.31422922	-0.082178229	0.74144665	-0.21356914	-0.0073446665	0.76306371	0.3190074
195	0.776	0.1954193	-0.033688476	0.040251183	-0.53537769	0.076214827	0.14900377	0.052210188	-0.0044523918	-0.0097584474	-0.55560106	0.23047208	0.17969252	0.063655233	0.014943108	0.087454574	-0.50434224	0.22079325	0.097403315	-0.025136864	-0.036578535	0.029817714	-0.58954388	0.27969818	0.12008722	0.12940597	0.40075556	-0.068002707	-0.14191859	0.38307404	0.25630377	0.1232083	0.40307183	0.058865271	-0.13081847	0.35276626	0.13281909	-0.038239922	0.78551847	-0.12392271	-0.12318101	0.77142627	0.24124356	0.021317495	0.87402115	-0.052592778	-0.0079937715	0.85791418	0.19135446	-0.15573833	0.91501903	0.044191663	-0.026003513	1.3168901	-0.10400514	-0.058046413	1.328859	0.22895966	-0.11366279	1.370197	0.057718579	-0.16601454	0.9823488	-0.1609395	-0.17112164	0.98017537	0.31419474	-0.072336908	0.7421007	-0.21296562	-0.0034516787	0.76236206	0.31929781
196	0.78	0.19539123	-0.03372608	0.040297864	-0.52447176	0.079145393	0.15073561	0.052198972	-0.0045646217	-0.0098207658	-0.54325179	0.23362076	0.18011675	0.063666771	0.014945082	0.087410523	-0.49273289	0.22404642	0.098134077	-0.025176466	-0.036509159	0.029779611	-0.57746581	0.28330227	0.12129367	0.13245928	0.39982944	-0.067828639	-0.12919252	0.38294209	0.25554214	0.12549594	0.40262879	0.058592038	-0.1189151	0.3532642	0.13204489	-0.031736562	0.78642547	-0.1241716	-0.11656243	0.77163285	0.24090388	0.027649233	0.8745853	-0.052694889	-0.0021123192	0.85868779	0.19098634	-0.14806156	0.91567063	0.042627747	-0.018958445	1.3176982	-0.10397851	-0.051789487	1.3296488	0.2288933	-0.10689949	1.3711119	0.057529724	-0.15845116	0.9827443	-0.16158463	-0.16531045	0.98128832	0.31414428	-0.062428644	0.74292595	-0.21231233	0.0005472677	0.76186388	0.31959693
